<?xml version="1.0" encoding="utf-8"?>
<svg xmlns="http://www.w3.org/2000/svg" xmlns:xlink="http://www.w3.org/1999/xlink" style="margin: auto; background: none; display: block; shape-rendering: auto;" width="204px" height="204px" viewBox="0 0 100 100" preserveAspectRatio="xMidYMid">
<g transform="rotate(0 50 50)">
  <rect x="47.5" y="35.5" rx="2.5" ry="3.22" width="5" height="7" fill="#f2bc39">
    <animate attributeName="opacity" values="1;0" keyTimes="0;1" dur="1.075268817204301s" begin="-0.9557945041816008s" repeatCount="indefinite"></animate>
  </rect>
</g><g transform="rotate(40 50 50)">
  <rect x="47.5" y="35.5" rx="2.5" ry="3.22" width="5" height="7" fill="#f2bc39">
    <animate attributeName="opacity" values="1;0" keyTimes="0;1" dur="1.075268817204301s" begin="-0.8363201911589008s" repeatCount="indefinite"></animate>
  </rect>
</g><g transform="rotate(80 50 50)">
  <rect x="47.5" y="35.5" rx="2.5" ry="3.22" width="5" height="7" fill="#f2bc39">
    <animate attributeName="opacity" values="1;0" keyTimes="0;1" dur="1.075268817204301s" begin="-0.7168458781362006s" repeatCount="indefinite"></animate>
  </rect>
</g><g transform="rotate(120 50 50)">
  <rect x="47.5" y="35.5" rx="2.5" ry="3.22" width="5" height="7" fill="#f2bc39">
    <animate attributeName="opacity" values="1;0" keyTimes="0;1" dur="1.075268817204301s" begin="-0.5973715651135005s" repeatCount="indefinite"></animate>
  </rect>
</g><g transform="rotate(160 50 50)">
  <rect x="47.5" y="35.5" rx="2.5" ry="3.22" width="5" height="7" fill="#f2bc39">
    <animate attributeName="opacity" values="1;0" keyTimes="0;1" dur="1.075268817204301s" begin="-0.4778972520908004s" repeatCount="indefinite"></animate>
  </rect>
</g><g transform="rotate(200 50 50)">
  <rect x="47.5" y="35.5" rx="2.5" ry="3.22" width="5" height="7" fill="#f2bc39">
    <animate attributeName="opacity" values="1;0" keyTimes="0;1" dur="1.075268817204301s" begin="-0.3584229390681003s" repeatCount="indefinite"></animate>
  </rect>
</g><g transform="rotate(240 50 50)">
  <rect x="47.5" y="35.5" rx="2.5" ry="3.22" width="5" height="7" fill="#f2bc39">
    <animate attributeName="opacity" values="1;0" keyTimes="0;1" dur="1.075268817204301s" begin="-0.2389486260454002s" repeatCount="indefinite"></animate>
  </rect>
</g><g transform="rotate(280 50 50)">
  <rect x="47.5" y="35.5" rx="2.5" ry="3.22" width="5" height="7" fill="#f2bc39">
    <animate attributeName="opacity" values="1;0" keyTimes="0;1" dur="1.075268817204301s" begin="-0.1194743130227001s" repeatCount="indefinite"></animate>
  </rect>
</g><g transform="rotate(320 50 50)">
  <rect x="47.5" y="35.5" rx="2.5" ry="3.22" width="5" height="7" fill="#f2bc39">
    <animate attributeName="opacity" values="1;0" keyTimes="0;1" dur="1.075268817204301s" begin="0s" repeatCount="indefinite"></animate>
  </rect>
</g>
<!-- [ldio] generated by https://loading.io/ --></svg>